:SAMPLES-PER-SECOND 30
:FULLY-SPECIFIED
:DEGREES
455
root  84.7336 38.4103 1.75605 -8.41836 -76.9853 8.89044
RightUpLeg  -4.47203 -8.58198 0.786477
RightLeg  15.784 -4.26531 0.231193
RightFoot  -14.5915 -0.188814 -3.17811
RightToes  -3.31784e-009 0 -3.6325e-017
Spine  8.0226 0.022549 8.8158
Spine1  4.93335 1.65868 -1.50309
HEad  -6.57399 -13.9288 3.7782
LeftShoulder1  -0.289385 4.24954 -32.6792
LeftArm  -2.06188 15.8691 -41.1276
LeftForeArm  24.4213 -40.8743 -8.10416
LeftHand  0.0580135 8.07372 4.12472
RightShoulder  -1.63852 -7.59289 33.5652
RightArm  13.0868 -5.17665 44.0117
RightForeArm  12.5751 6.94038 6.91964
RightHand  -0.161337 2.82097 -2.50614
LeftUpLeg  -15.0072 11.7965 2.76185
LeftLeg  52.1187 0.355735 0.946624
LeftFoot  -0.90408 0.67018 -7.25362
LeftToes  1.28511e-009 -3.60458e-011 6.16399e-011
456
root  84.265 38.504 1.91995 -15.4572 -80.5526 16.1248
RightUpLeg  -3.91359 -8.64675 -0.0211166
RightLeg  15.4724 -0.437135 0.592345
RightFoot  -14.4306 -0.181948 -3.13235
RightToes  -3.31784e-009 0 -3.6325e-017
Spine  8.56708 0.650772 9.57129
Spine1  3.84451 2.55689 -2.90886
HEad  -6.2961 -14.3463 3.17118
LeftShoulder1  -0.305191 4.29288 -32.5322
LeftArm  -2.05703 15.9014 -41.0165
LeftForeArm  25.7694 -42.0907 -8.39994
LeftHand  0.074726 8.91082 3.76077
RightShoulder  -1.59787 -7.51904 33.2915
RightArm  14.6768 -2.62859 45.4123
RightForeArm  11.4589 8.9689 7.32947
RightHand  -0.17073 3.47995 -2.48079
LeftUpLeg  -17.2023 8.65223 1.30787
LeftLeg  49.9336 1.41051 2.22733
LeftFoot  -0.795559 0.465509 -4.47899
LeftToes  1.28511e-009 -3.60458e-011 6.16399e-011
457
root  83.6994 38.521 2.06754 -24.2762 -82.6747 24.5864
RightUpLeg  -2.82078 -9.03199 -0.712545
RightLeg  15.774 2.36253 0.959115
RightFoot  -14.6509 -0.191505 -3.19308
RightToes  -3.31784e-009 0 -3.6325e-017
Spine  8.54427 0.858604 10.0835
Spine1  4.05861 2.85822 -3.41513
HEad  -6.49939 -14.2732 2.641
LeftShoulder1  -0.249873 4.15408 -32.3003
LeftArm  -2.50312 15.6926 -41.4699
LeftForeArm  25.4219 -41.712 -8.30215
LeftHand  0.0211259 7.83119 2.83121
RightShoulder  -1.53333 -7.38778 32.9754
RightArm  18.0292 0.862395 46.8908
RightForeArm  10.1969 10.9908 7.70736
RightHand  -0.216901 4.34414 -2.86135
LeftUpLeg  -18.8602 5.04968 0.153069
LeftLeg  46.5405 4.77426 5.63968
LeftFoot  2.65028 -0.88653 4.58154
LeftToes  1.28511e-009 -3.60458e-011 6.16399e-011
458
root  83.082 38.5255 2.18331 -42.3286 -85.2604 42.4867
RightUpLeg  -1.71701 -8.81607 -1.07396
RightLeg  15.5561 5.22444 1.12653
RightFoot  -15.0536 -0.219191 -3.62778
RightToes  -3.31784e-009 0 -3.6325e-017
Spine  8.50034 1.54121 10.5101
Spine1  4.07338 3.6028 -4.22367
HEad  -6.80685 -14.5215 2.10402
LeftShoulder1  -0.2622 4.1826 -32.5023
LeftArm  -2.39177 15.4476 -41.6177
LeftForeArm  23.3313 -40.5397 -8.07071
LeftHand  0.0876651 9.0473 4.11729
RightShoulder  -1.49579 -7.33401 32.5568
RightArm  21.9751 4.25592 48.2116
RightForeArm  8.41901 13.3653 7.55513
RightHand  -0.265469 5.51705 -3.1459
LeftUpLeg  -20.0596 3.18503 -0.628956
LeftLeg  41.7187 7.58497 7.76527
LeftFoot  7.40002 -3.51087 18.5934
LeftToes  1.28511e-009 -3.60458e-011 6.16399e-011
459
root  82.4475 38.5514 2.28324 -71.4353 -86.2998 71.3953
RightUpLeg  -0.340449 -8.50483 -1.56935
RightLeg  14.9891 7.21641 0.96459
RightFoot  -15.4931 -0.235087 -3.59728
RightToes  -3.31784e-009 0 -3.6325e-017
Spine  8.80716 1.79363 10.3835
Spine1  3.52104 3.81997 -4.81026
HEad  -6.85906 -14.4546 1.7579
LeftShoulder1  -0.230861 4.0995 -32.6277
LeftArm  -2.3127 15.6038 -41.562
LeftForeArm  22.4538 -38.6519 -7.55268
LeftHand  0.119189 9.49889 4.54919
RightShoulder  -1.43906 -7.20618 32.3585
RightArm  25.0831 7.53378 49.462
RightForeArm  7.19958 15.4798 6.98688
RightHand  -0.280414 5.8349 -3.21122
LeftUpLeg  -21.118 1.38461 0.253394
LeftLeg  35.4254 1.13861 1.14165
LeftFoot  -2.38376 0.761699 -6.97623
LeftToes  1.28511e-009 -3.60458e-011 6.16399e-011
460
root  81.7607 38.5494 2.34976 -97.0868 -86.3692 96.9814
RightUpLeg  1.03988 -8.1936 -1.85908
RightLeg  14.3742 8.50257 0.69298
RightFoot  -15.9415 -0.254351 -3.64615
RightToes  -3.31784e-009 0 -3.6325e-017
Spine  8.44608 1.87834 9.98217
Spine1  3.72126 3.74846 -5.00693
HEad  -6.8059 -14.1498 1.55596
LeftShoulder1  -0.259138 4.17161 -32.6602
LeftArm  -1.30019 15.7053 -41.3476
LeftForeArm  22.7481 -36.6206 -6.95817
LeftHand  0.0373434 8.26749 3.21282
RightShoulder  -1.3183 -6.96439 31.5939
RightArm  26.5814 10.6139 51.195
RightForeArm  4.85174 16.5791 6.6755
RightHand  -0.421818 6.16229 -4.57565
LeftUpLeg  -21.9159 -0.797678 0.256499
LeftLeg  28.4252 -0.447188 0.0795555
LeftFoot  -1.68252 0.469515 -5.43969
LeftToes  1.28511e-009 -3.60458e-011 6.16399e-011
461
root  81.0446 38.5031 2.38866 -100.182 -86.2559 99.8357
RightUpLeg  2.93221 -8.35081 -2.25785
RightLeg  13.4791 8.61917 0.635442
RightFoot  -16.5702 -0.291928 -3.93659
RightToes  -3.31784e-009 0 -3.6325e-017
Spine  8.71736 1.56161 9.21169
Spine1  3.08202 3.16972 -4.80377
HEad  -6.66399 -14.4506 1.42726
LeftShoulder1  -0.30678 4.29074 -32.8417
LeftArm  0.402974 15.5277 -41.0492
LeftForeArm  23.024 -33.7003 -6.16223
LeftHand  -0.00214206 7.76176 1.60562
RightShoulder  -1.30207 -6.94425 31.3424
RightArm  26.8319 13.1592 52.0629
RightForeArm  3.79148 17.2459 6.37847
RightHand  -0.389933 6.8404 -4.04202
LeftUpLeg  -22.1745 -2.87572 0.264956
LeftLeg  20.5653 -2.6157 -0.773887
LeftFoot  -1.70904 0.542122 -6.30451
LeftToes  1.28511e-009 -3.60458e-011 6.16399e-011
462
root  80.2715 38.4777 2.4152 -100.206 -86.117 99.6802
RightUpLeg  4.95634 -8.73176 -2.95121
RightLeg  12.4965 9.11345 0.885298
RightFoot  -17.0185 -0.320294 -4.14203
RightToes  -3.31784e-009 0 -3.6325e-017
Spine  9.21035 1.32547 8.15426
Spine1  1.86509 2.70769 -4.70114
HEad  -5.96996 -15.2413 1.568
LeftShoulder1  -0.214993 4.05943 -32.576
LeftArm  1.53699 16.1435 -41.1334
LeftForeArm  23.2755 -30.5765 -5.37703
LeftHand  -0.0428212 6.51892 -0.32755
RightShoulder  -1.28177 -6.88577 31.3894
RightArm  27.7773 14.7493 52.129
RightForeArm  2.3283 18.5955 5.87346
RightHand  -0.344903 6.60846 -3.68167
LeftUpLeg  -21.8226 -3.19949 -0.436375
LeftLeg  12.0915 -3.8503 -0.575354
LeftFoot  -1.09239 0.674377 -7.439
LeftToes  1.28511e-009 -3.60458e-011 6.16399e-011
463
root  79.3952 38.4598 2.44886 -111.382 -85.6056 110.464
RightUpLeg  7.41185 -8.68545 -3.65188
RightLeg  11.2226 10.2687 0.669104
RightFoot  -17.4348 -0.315216 -3.7075
RightToes  -3.31784e-009 0 -3.6325e-017
Spine  8.91079 1.45685 7.14687
Spine1  2.38619 2.86002 -4.97832
HEad  -5.41845 -15.4442 1.58642
LeftShoulder1  -0.195428 4.00812 -32.6201
LeftArm  2.99028 16.5455 -41.1998
LeftForeArm  21.519 -27.4075 -4.72538
LeftHand  -0.0465703 8.85709 -0.239684
RightShoulder  -1.22844 -6.78464 30.9315
RightArm  28.8854 16.0738 52.524
RightForeArm  1.95982 20.1511 5.32039
RightHand  -0.323923 5.51706 -3.75811
LeftUpLeg  -20.6824 -0.569398 -1.83036
LeftLeg  4.41871 -2.57457 -0.228118
LeftFoot  -0.0644781 0.840021 -8.48227
LeftToes  1.28511e-009 -3.60458e-011 6.16399e-011
464
root  78.4072 38.3832 2.51962 -131.276 -84.6461 129.922
RightUpLeg  9.85893 -8.72128 -4.57728
RightLeg  10.3184 12.4776 0.655831
RightFoot  -18.1838 -0.318115 -3.26224
RightToes  -3.31784e-009 0 -3.6325e-017
Spine  7.78949 2.05085 6.58347
Spine1  4.16724 3.6666 -5.66747
HEad  -5.13246 -16.0168 1.71192
LeftShoulder1  -0.251238 4.14783 -32.8776
LeftArm  4.85042 16.7324 -41.173
LeftForeArm  19.7786 -24.3929 -4.25624
LeftHand  -0.026628 11.2869 0.67595
RightShoulder  -1.20462 -6.75346 30.5573
RightArm  29.5329 17.5265 52.6714
RightForeArm  1.81928 20.5163 5.24139
RightHand  -0.293547 5.58171 -3.42285
LeftUpLeg  -19.6674 0.703312 -2.04836
LeftLeg  -0.318194 3.56942 -1.15005
LeftFoot  1.30216 0.946128 -8.6195
LeftToes  1.28511e-009 -3.60458e-011 6.16399e-011
465
root  77.3844 38.1343 2.6221 -134.982 -84.8109 133.148
RightUpLeg  12.0341 -8.65341 -4.81647
RightLeg  10.6409 12.7282 0.623416
RightFoot  -19.7486 -0.350219 -2.95026
RightToes  -3.31784e-009 0 -3.6325e-017
Spine  7.41847 1.89716 6.30314
Spine1  4.76319 3.55267 -5.78013
HEad  -4.82439 -16.2385 1.73876
LeftShoulder1  -0.30021 4.26975 -33.0642
LeftArm  4.22518 16.9067 -41.0404
LeftForeArm  19.9808 -20.4627 -4.44625
LeftHand  -0.0285275 8.45315 0.688429
RightShoulder  -1.18413 -6.71609 30.3491
RightArm  30.1042 17.9119 52.3504
RightForeArm  2.3999 21.1387 5.05639
RightHand  -0.25643 5.69157 -3.00982
LeftUpLeg  -19.8584 0.522613 -2.55409
LeftLeg  0.276695 7.7517 -1.12475
LeftFoot  1.79018 0.725775 -6.3656
LeftToes  1.28511e-009 -3.60458e-011 6.16399e-011
